<?xml version="1.0" standalone="no"?>
<!DOCTYPE svg PUBLIC "-//W3C//DTD SVG 20010904//EN"
 "http://www.w3.org/TR/2001/REC-SVG-20010904/DTD/svg10.dtd">
<svg version="1.0" xmlns="http://www.w3.org/2000/svg"
 width="425.000000pt" height="425.000000pt" viewBox="0 0 425.000000 425.000000"
 preserveAspectRatio="xMidYMid meet">
<metadata>
Created by potrace 1.14, written by Peter Selinger 2001-2017
</metadata>
<g transform="translate(0.000000,425.000000) scale(0.100000,-0.100000)"
fill="#000000" stroke="none">
<path d="M0 2125 l0 -2125 1471 0 c1173 0 1469 3 1463 13 -6 10 -4 10 7 0 10
-10 80 -13 280 -13 l267 0 -20 53 c-11 28 -16 48 -11 44 4 -5 15 -27 24 -50
l17 -42 376 -3 376 -2 0 2125 0 2125 -2125 0 -2125 0 0 -2125z m948 2001 c26
-26 37 -42 24 -35 -26 16 -112 125 -112 142 0 7 9 -4 21 -23 11 -19 42 -57 67
-84z m76 50 c-3 -15 -8 -25 -11 -23 -2 3 -1 17 3 31 3 15 8 25 11 23 2 -3 1
-17 -3 -31z m2251 -56 c9 -12 9 -18 -5 -31 -15 -14 -19 -14 -38 2 l-22 17 22
26 c14 15 24 20 27 13 2 -7 9 -19 16 -27z m910 1 c3 -5 1 -12 -5 -16 -5 -3
-10 1 -10 9 0 18 6 21 15 7z m-2419 -109 c-5 -5 -144 87 -152 100 -3 4 31 -15
76 -44 44 -28 78 -53 76 -56z m-736 58 c8 -5 11 -12 8 -16 -4 -3 -14 1 -23 10
-18 17 -9 21 15 6z m-826 -39 c-2 -3 -12 3 -22 13 -16 17 -16 18 5 5 12 -7 20
-15 17 -18z m851 -1 c3 -5 1 -10 -4 -10 -6 0 -11 5 -11 10 0 6 2 10 4 10 3 0
8 -4 11 -10z m1310 0 c3 -6 0 -17 -8 -25 -12 -12 -17 -12 -26 -1 -7 9 -7 16 1
24 15 15 25 15 33 2z m-2085 -32 c0 -5 -13 -2 -30 7 -16 9 -30 17 -30 19 0 3
14 -1 30 -7 17 -6 30 -15 30 -19z m820 1 c0 -4 -7 -6 -15 -3 -8 4 -15 10 -15
15 0 4 7 6 15 3 8 -4 15 -10 15 -15z m743 -19 c26 -13 47 -28 47 -32 0 -13
-17 -9 -33 7 -8 8 -17 12 -20 9 -7 -7 -56 28 -57 39 0 5 3 7 8 5 4 -2 28 -14
55 -28z m-727 -17 c-10 -10 -19 5 -10 18 6 11 8 11 12 0 2 -7 1 -15 -2 -18z
m1254 17 c0 -5 -5 -10 -11 -10 -5 0 -7 5 -4 10 3 6 8 10 11 10 2 0 4 -4 4 -10z
m-1965 -25 c39 -17 21 -18 -25 0 -19 7 -28 14 -20 14 8 0 29 -6 45 -14z m765
-6 c0 -5 -6 -9 -13 -9 -8 0 -14 6 -14 14 0 8 6 12 14 9 7 -3 13 -9 13 -14z
m790 -46 c0 -15 -2 -15 -24 -7 -9 3 -16 12 -16 20 0 8 -6 11 -15 8 -15 -6 -21
7 -9 19 10 9 64 -25 64 -40z m1948 23 c57 -29 86 -59 107 -110 40 -94 6 -213
-70 -251 -58 -28 -131 -26 -175 5 l-35 25 35 6 c46 7 73 22 104 59 72 87 53
247 -34 277 -34 11 -34 12 -7 12 15 1 49 -10 75 -23z m-3424 5 c3 -5 -5 -8
-19 -7 -14 0 -25 4 -25 9 0 10 38 9 44 -2z m731 -3 c14 -6 25 -15 25 -19 0 -4
7 -15 17 -24 14 -14 14 -18 2 -26 -33 -21 -54 2 -27 29 7 7 8 12 2 12 -5 0
-15 -5 -22 -12 -9 -9 -12 -8 -12 4 0 9 6 19 13 21 8 4 7 6 -3 6 -9 1 -21 -4
-28 -11 -13 -13 -15 -8 -6 16 7 19 6 19 39 4z m302 -20 c-3 -7 -5 -2 -5 12 0
14 2 19 5 13 2 -7 2 -19 0 -25z m-978 3 c8 -5 10 -14 6 -21 -6 -9 -10 -8 -17
4 -8 14 -13 15 -24 5 -12 -10 -13 -9 -8 5 7 18 22 20 43 7z m1475 -7 c3 -8 2
-12 -4 -9 -6 3 -10 10 -10 16 0 14 7 11 14 -7z m1156 -19 c251 -81 457 -250
604 -498 166 -278 223 -604 156 -892 -25 -108 -47 -156 -124 -271 -50 -74 -63
-101 -54 -111 6 -7 15 -13 21 -13 6 0 2 7 -9 15 -21 16 -12 20 15 5 14 -7 25
-2 51 25 37 38 66 49 33 13 -11 -13 -26 -34 -33 -47 -11 -21 -9 -26 16 -47 16
-13 37 -26 47 -29 20 -7 23 -25 3 -25 -12 0 -64 35 -76 51 -3 4 -31 21 -63 38
-49 26 -56 28 -47 12 16 -30 12 -36 -10 -16 -11 10 -20 26 -20 37 0 10 -4 18
-10 18 -5 0 -12 0 -15 0 -3 0 -4 -3 -2 -7 1 -5 5 -7 10 -5 4 1 7 -4 7 -12 0
-12 -12 -13 -54 -7 -4 0 -5 8 -2 17 5 12 2 15 -9 10 -9 -3 -14 -2 -11 3 3 4
-6 19 -20 32 -22 21 -24 21 -18 4 7 -20 7 -20 -14 -1 -12 11 -22 25 -22 32 0
7 -5 16 -12 20 -8 5 -9 2 -5 -10 6 -15 3 -14 -19 3 -20 16 -30 18 -40 10 -10
-8 -23 -4 -53 20 -21 17 -43 31 -47 31 -5 0 -20 9 -33 19 -19 15 -21 19 -8 24
12 4 15 18 12 59 -3 32 -1 45 4 34 7 -19 8 -19 15 -1 7 19 -11 38 -27 28 -5
-3 -6 4 -2 15 4 14 -2 36 -20 64 -37 62 -91 122 -99 110 -3 -5 8 -22 25 -36
17 -14 25 -26 18 -26 -17 0 -59 40 -59 57 0 7 -5 13 -10 13 -6 0 -8 -14 -6
-32 3 -18 2 -27 -1 -19 -4 11 -7 11 -13 0 -6 -9 -17 -3 -41 24 -18 20 -46 41
-63 47 -43 15 -96 83 -90 115 3 18 0 25 -11 25 -13 0 -14 -4 -5 -20 7 -14 7
-20 0 -20 -9 0 -14 20 -11 42 0 3 -17 25 -39 47 -41 42 -55 68 -20 36 11 -10
30 -19 43 -20 26 -2 56 -55 57 -102 0 -17 5 -35 11 -39 8 -5 10 3 7 25 -3 20
-1 30 6 28 6 -2 12 -19 13 -38 2 -21 11 -40 24 -49 11 -8 41 -33 65 -54 25
-21 47 -36 51 -32 9 9 12 49 5 61 -8 12 -12 30 -19 75 -3 19 -9 40 -14 46 -5
6 -18 45 -28 85 -14 54 -16 76 -7 81 7 5 6 11 -5 20 -9 7 -24 27 -33 43 -12
25 -15 26 -16 10 0 -12 6 -27 13 -34 10 -10 8 -12 -8 -9 -17 2 -20 -3 -20 -29
0 -24 -3 -29 -12 -21 -10 8 -13 3 -13 -21 0 -35 -14 -41 -30 -12 -13 26 -13
34 3 25 6 -4 0 4 -15 19 -16 14 -28 34 -28 44 1 14 4 13 15 -7 10 -17 14 -20
15 -9 0 17 -23 42 -32 34 -2 -3 -30 32 -61 78 -61 90 -146 188 -147 171 0 -6
25 -49 55 -94 30 -45 55 -86 55 -90 0 -4 9 -15 20 -25 11 -10 17 -22 14 -27
-3 -5 0 -16 7 -24 7 -9 13 -24 14 -35 1 -17 0 -17 -14 -5 -18 16 -72 17 -83 2
-4 -6 -25 31 -48 81 -26 56 -47 90 -54 87 -7 -3 -28 6 -47 18 -21 14 -47 22
-68 21 -20 -1 -30 2 -24 8 5 5 28 10 52 11 41 1 42 2 19 14 -32 18 -59 17 -73
-3 -11 -15 -13 -15 -24 5 -11 21 -10 22 26 22 36 1 37 1 15 13 -28 16 -57 67
-39 68 7 0 -3 5 -21 10 -18 5 -30 14 -27 19 8 12 -14 49 -47 79 -16 14 -28 29
-28 33 0 13 -34 43 -49 43 -22 0 -25 23 -4 28 14 3 14 4 -2 3 -27 -1 -70 38
-60 55 5 7 4 10 -2 6 -6 -4 -16 0 -23 8 -7 8 -16 13 -20 10 -17 -11 -21 30 -4
42 25 18 32 17 60 -14 19 -20 22 -29 12 -35 -8 -6 -5 -7 10 -3 12 4 22 2 22
-4 0 -7 60 -45 60 -38 0 1 11 33 24 72 23 70 41 91 48 58 2 -10 6 -13 10 -8 8
14 -11 62 -20 49 -4 -6 -23 -19 -42 -28 l-35 -18 29 26 c16 14 32 26 35 26 3
1 31 23 61 51 57 52 116 88 147 90 10 0 13 3 7 5 -7 3 -47 -4 -90 -15 -91 -23
-113 -20 -28 5 156 45 224 54 394 50 147 -3 174 -6 250 -31z m-2595 5 c3 -5 1
-10 -4 -10 -6 0 -11 5 -11 10 0 6 2 10 4 10 3 0 8 -4 11 -10z m1464 -38 c31
-27 64 -51 74 -55 11 -4 15 -12 11 -18 -4 -7 -3 -9 3 -6 11 7 42 -21 41 -38 0
-19 -19 -33 -38 -28 -11 3 -20 10 -20 16 0 5 -8 15 -17 22 -15 11 -16 15 -3
31 14 18 14 18 -3 5 -16 -12 -20 -11 -38 8 -18 19 -19 24 -7 38 12 15 11 15
-9 5 -17 -9 -22 -9 -27 4 -3 9 -4 20 -1 25 4 5 0 7 -7 4 -18 -7 -42 10 -34 24
11 17 15 15 75 -37z m-1435 14 c-3 -9 -10 -16 -15 -16 -6 0 -5 9 1 21 13 24
24 20 14 -5z m923 2 c-3 -8 -6 -5 -6 6 -1 11 2 17 5 13 3 -3 4 -12 1 -19z
m-217 -18 c0 -10 -50 -23 -58 -15 -9 8 31 33 45 28 7 -3 13 -9 13 -13z m-632
-21 c3 -12 2 -12 -6 0 -8 11 -12 10 -21 -5 -12 -21 -14 -15 -5 11 7 18 26 15
32 -6z m1469 -21 c-3 -7 -5 -2 -5 12 0 14 2 19 5 13 2 -7 2 -19 0 -25z m-1422
12 c3 -5 -1 -22 -9 -37 -8 -16 -15 -24 -16 -20 0 5 5 18 11 29 9 16 8 23 -2
29 -10 6 -10 9 -2 9 6 0 15 -4 18 -10z m615 -6 c0 -10 5 -14 15 -10 10 3 30
-8 53 -29 36 -33 37 -34 17 -49 -24 -18 -44 -4 -25 19 10 12 10 15 -2 15 -8 0
-19 -5 -26 -12 -7 -7 -12 -8 -12 -4 0 5 7 14 17 21 11 8 13 14 5 19 -7 4 -12
2 -12 -3 0 -6 -8 -11 -18 -11 -10 0 -24 -6 -32 -12 -8 -8 -7 -4 3 11 12 18 13
26 4 36 -8 9 -16 10 -24 3 -10 -8 -13 -6 -13 6 0 10 9 16 25 16 16 0 25 -6 25
-16z m1070 1 c0 -2 -18 -14 -40 -25 -22 -11 -40 -18 -40 -15 0 2 17 13 38 24
42 23 42 23 42 16z m-1643 -49 c-12 -14 -24 -23 -26 -21 -7 8 30 56 39 50 4
-3 -1 -16 -13 -29z m2946 9 c7 -18 -6 -27 -27 -19 -12 5 -13 9 -3 20 16 17 24
17 30 -1z m-2893 -16 c-7 -11 -14 -18 -17 -15 -3 3 0 12 7 21 18 21 23 19 10
-6z m58 -38 c-6 -2 -14 1 -16 8 -2 6 -7 9 -12 6 -4 -3 -11 2 -14 11 -5 13 -1
12 24 -3 18 -10 25 -20 18 -22z m642 -51 c0 -4 11 -11 25 -14 33 -8 56 -53 34
-67 -11 -7 -9 -9 10 -9 16 0 21 -4 17 -15 -3 -8 -1 -15 5 -15 5 0 13 -8 16
-17 4 -10 15 -27 26 -38 50 -53 32 -52 -21 1 -44 45 -63 59 -71 51 -8 -8 -10
-2 -7 21 3 29 1 31 -20 26 -15 -4 -24 -2 -24 5 0 6 15 11 33 12 l32 1 -34 9
c-27 8 -37 7 -53 -7 -17 -16 -18 -16 -12 -1 3 9 10 17 14 17 4 0 10 9 13 21 5
18 2 21 -24 17 -27 -4 -28 -4 -12 14 15 17 14 18 -15 18 -37 0 -41 13 -9 27
19 9 26 6 50 -19 15 -16 27 -33 27 -38z m671 60 c1 -5 2 -16 3 -22 2 -14 -32
-43 -40 -35 -3 3 0 16 7 29 7 12 12 26 11 31 -1 4 3 7 8 7 6 0 11 -4 11 -10z
m-1292 -44 c-11 -20 -23 -36 -25 -36 -6 0 16 53 28 67 20 25 19 6 -3 -31z
m-68 11 c-10 -9 -11 -8 -5 6 3 10 9 15 12 12 3 -3 0 -11 -7 -18z m141 -10 c-6
-7 -7 -18 -3 -26 6 -10 12 -6 20 15 l11 29 -5 -27 c-3 -16 -1 -28 5 -28 5 0
10 -5 10 -12 0 -9 -3 -9 -12 0 -10 10 -15 7 -26 -10 -8 -13 -11 -15 -8 -5 8
24 -3 47 -23 47 -14 1 -13 3 3 15 24 18 42 20 28 2z m1251 -14 c4 -3 -2 -13
-14 -21 -22 -15 -47 -3 -35 17 8 12 39 15 49 4z m-1188 -43 c-4 -17 -9 -29
-12 -26 -3 2 -2 19 2 36 4 17 9 29 12 26 3 -2 2 -19 -2 -36z m35 19 c0 -6 5
-9 12 -7 6 2 20 -4 30 -14 10 -10 25 -18 33 -18 19 0 19 -9 0 -34 -11 -15 -18
-17 -27 -8 -8 8 -8 16 3 29 13 17 13 17 -4 4 -10 -8 -25 -28 -33 -45 -13 -30
-13 -24 1 38 5 26 4 28 -9 17 -9 -8 -17 -10 -17 -5 -6 38 -5 54 2 54 5 0 9 -5
9 -11z m124 -75 c3 -8 -1 -27 -10 -42 l-15 -27 6 28 c4 20 1 27 -9 27 -10 0
-13 6 -10 15 8 20 30 19 38 -1z m72 -19 c13 -8 24 -20 24 -25 0 -6 9 -10 19
-10 11 0 23 -4 26 -10 3 -5 0 -10 -9 -10 -26 0 -46 12 -46 28 0 13 -3 12 -15
-4 -14 -18 -14 -18 -15 5 0 19 -3 21 -14 12 -14 -12 -18 -9 -29 21 -7 20 23
17 59 -7z m404 -16 c15 -28 5 -23 -15 7 -9 15 -12 23 -6 20 6 -4 16 -16 21
-27z m-1190 -24 c0 -5 -5 -3 -10 5 -5 8 -10 20 -10 25 0 6 5 3 10 -5 5 -8 10
-19 10 -25z m-307 -31 c-4 -11 -8 -12 -20 -3 -11 10 -11 14 -1 20 17 10 28 2
21 -17z m1236 5 c19 -16 23 -24 15 -36 -6 -9 -17 -17 -26 -19 -13 -2 -15 3 -7
30 l9 31 -19 -24 c-16 -21 -19 -21 -24 -7 -4 10 -11 14 -17 11 -5 -3 -10 -2
-10 3 0 8 36 30 50 31 3 0 16 -9 29 -20z m299 -14 c-3 -3 -9 2 -12 12 -6 14
-5 15 5 6 7 -7 10 -15 7 -18z m294 -57 c10 -21 14 -38 10 -38 -9 0 -43 78 -41
95 0 6 3 3 6 -5 3 -8 14 -32 25 -52z m-536 31 c1 -5 2 -12 3 -15 0 -4 9 0 18
7 15 12 16 12 9 -6 -5 -11 -15 -36 -22 -55 l-14 -35 3 45 c2 38 -1 45 -15 44
-21 -2 -23 7 -6 24 12 12 22 8 24 -9z m269 11 c3 -5 1 -10 -4 -10 -6 0 -11 5
-11 10 0 6 2 10 4 10 3 0 8 -4 11 -10z m30 -30 c3 -5 1 -10 -4 -10 -6 0 -11 5
-11 10 0 6 2 10 4 10 3 0 8 -4 11 -10z m2375 -7 c0 -2 -6 -11 -14 -18 -12 -12
-15 -12 -20 1 -8 21 1 34 19 27 8 -3 15 -7 15 -10z m-2612 -12 c3 -8 -1 -12
-9 -9 -7 2 -15 10 -17 17 -3 8 1 12 9 9 7 -2 15 -10 17 -17z m306 -50 c-6 -7
-54 41 -54 53 0 6 13 -2 29 -19 16 -16 27 -32 25 -34z m-254 40 c0 -13 -26
-32 -33 -24 -4 3 -13 -9 -21 -28 -9 -19 -15 -28 -16 -21 -1 31 30 82 49 82 12
0 21 -4 21 -9z m64 -43 c-4 -7 -3 -8 4 -4 17 10 74 -26 67 -43 -4 -11 -3 -11
9 -2 18 15 40 5 32 -15 -7 -17 6 -18 22 -2 9 9 12 8 12 -4 0 -9 6 -18 13 -21
8 -3 4 -13 -12 -31 l-24 -26 -16 23 c-22 32 -33 37 -50 24 -12 -10 -14 -9 -9
4 4 10 -3 22 -18 34 -13 9 -21 21 -19 25 3 5 -5 6 -17 2 -15 -4 -19 -2 -13 7
5 10 2 11 -12 7 -13 -4 -25 0 -34 11 -8 9 -9 14 -3 10 6 -3 22 5 35 19 19 21
24 22 32 9 4 -8 5 -20 1 -27z m389 -6 c14 -15 14 -19 3 -19 -8 0 -17 9 -19 19
-3 10 -4 18 -3 18 2 0 10 -8 19 -18z m-67 -63 c3 -6 -5 -3 -20 6 -14 10 -26
19 -26 22 0 7 39 -17 46 -28z m83 -9 c0 -10 -3 -8 -9 5 -12 27 -12 43 0 25 5
-8 9 -22 9 -30z m101 -89 c0 -2 -11 6 -24 18 -13 12 -26 19 -28 14 -3 -4 -3
-3 -2 4 2 7 -1 15 -6 18 -6 3 -15 16 -21 28 -6 12 10 0 35 -28 25 -27 46 -51
46 -54z m63 20 c-2 -3 -20 12 -41 34 l-37 39 41 -35 c22 -19 39 -36 37 -38z
m-335 21 c6 -18 -47 -47 -60 -34 -9 9 -16 7 -30 -5 -18 -16 -18 -16 -12 3 10
28 35 54 51 54 9 0 11 5 7 13 -5 7 2 6 16 -4 13 -9 26 -21 28 -27z m-1208 -7
c14 -19 14 -19 -2 -6 -10 7 -18 18 -18 24 0 6 1 8 3 6 1 -2 9 -13 17 -24z
m1595 15 c3 -5 2 -10 -4 -10 -5 0 -13 5 -16 10 -3 6 -2 10 4 10 5 0 13 -4 16
-10z m35 0 c0 -5 7 -10 15 -10 8 0 15 -4 15 -10 0 -15 -16 -12 -34 6 -19 18
-20 24 -6 24 6 0 10 -4 10 -10z m-217 -42 c10 -16 14 -28 9 -28 -8 0 -32 43
-32 57 0 7 1 6 23 -29z m-166 -12 l23 -24 -26 -17 c-21 -14 -28 -15 -35 -4 -4
7 -5 17 -2 23 3 5 1 6 -5 2 -22 -14 -34 5 -16 25 22 25 34 24 61 -5z m83 -21
c17 -20 -9 -21 -36 0 -19 14 -19 14 2 15 12 0 27 -7 34 -15z m40 -15 c9 -16 8
-18 -5 -14 -8 4 -15 12 -15 20 0 20 7 17 20 -6z m-70 -9 c0 -3 -11 -14 -25
-24 -29 -21 -45 -4 -20 23 15 17 45 18 45 1z m64 -34 c38 -32 38 -32 18 -50
-17 -16 -23 -16 -41 -5 -12 7 -21 19 -21 27 0 11 -3 12 -11 4 -9 -9 -15 -8
-24 0 -11 10 -9 16 8 35 11 12 23 22 27 22 4 0 24 -15 44 -33z m-838 -5 c-4
-3 -14 2 -24 12 -16 18 -16 18 6 6 13 -6 21 -14 18 -18z m995 11 c13 -16 12
-17 -3 -4 -10 7 -18 15 -18 17 0 8 8 3 21 -13z m119 2 c17 -9 30 -18 30 -21 0
-4 -59 23 -69 32 -10 9 13 3 39 -11z m119 -25 c13 -11 22 -22 19 -25 -2 -2
-22 12 -43 31 -41 36 -19 31 24 -6z m148 18 c-3 -8 -6 -5 -6 6 -1 11 2 17 5
13 3 -3 4 -12 1 -19z m97 -27 c-2 -2 2 -13 8 -25 11 -21 11 -21 -10 -3 -11 11
-26 33 -32 50 l-11 32 24 -25 c14 -14 23 -27 21 -29z m-82 7 c-8 -8 -9 -4 -5
13 4 13 8 18 11 10 2 -7 -1 -18 -6 -23z m-362 -6 c0 -15 -2 -15 -10 -2 -13 20
-13 33 0 25 6 -3 10 -14 10 -23z m-1000 4 c0 -3 -4 -8 -10 -11 -5 -3 -10 -1
-10 4 0 6 5 11 10 11 6 0 10 -2 10 -4z m103 -62 c9 -4 17 -13 17 -20 0 -19
-19 -18 -26 1 -4 8 -10 12 -15 9 -5 -3 -9 2 -9 11 0 9 -4 14 -8 11 -11 -6 -52
21 -52 35 0 5 17 -2 38 -16 20 -14 45 -28 55 -31z m1300 3 c-4 -6 -13 -1 -25
12 -10 13 -15 28 -11 34 4 6 13 1 25 -12 10 -13 15 -28 11 -34z m-531 29 c14
-10 15 -15 5 -26 -10 -12 -9 -12 6 0 10 7 16 19 13 27 -7 17 -5 17 32 -11 26
-19 30 -25 19 -35 -8 -6 -17 -8 -20 -4 -4 3 -16 -2 -28 -13 -20 -18 -22 -18
-33 -2 -7 10 -16 15 -19 11 -13 -12 -7 23 6 37 6 8 2 6 -11 -4 -28 -24 -41
-13 -17 14 21 23 24 24 47 6z m248 -11 c0 -1 -8 -5 -18 -7 -11 -3 -23 2 -30
13 -10 16 -9 17 18 7 17 -5 30 -11 30 -13z m170 -40 c0 -5 -9 5 -20 23 -26 42
-26 56 0 17 11 -16 20 -34 20 -40z m-260 -24 c-1 -12 -3 -11 -12 4 -6 11 -20
31 -32 45 -16 20 -14 19 12 -4 17 -17 32 -37 32 -45z m302 20 c-1 -7 2 -10 8
-6 5 3 20 -3 32 -14 12 -12 28 -21 35 -21 17 0 89 -45 99 -62 6 -10 4 -10 -9
0 -9 8 -22 10 -28 6 -7 -4 -9 -3 -6 3 4 6 0 13 -8 17 -8 3 -15 1 -15 -4 0 -18
-19 -10 -25 11 -5 16 -10 18 -21 8 -11 -9 -15 -8 -20 5 -3 9 -9 14 -14 11 -7
-4 -40 27 -55 53 -5 10 -2 13 11 10 11 -2 18 -10 16 -17z m-1165 -23 c26 -24
30 -40 8 -32 -8 4 -13 10 -10 14 3 4 -4 10 -15 13 -11 3 -20 10 -20 16 0 17
11 13 37 -11z m901 3 c19 -10 126 -55 157 -65 14 -5 16 -9 7 -15 -8 -5 -29 0
-50 10 -21 11 -49 20 -63 21 -13 1 -38 15 -54 30 -30 28 -29 36 3 19z m748
-28 c-8 -8 -33 9 -33 22 0 13 4 12 19 -2 10 -9 16 -18 14 -20z m-888 -15 c24
-47 27 -58 12 -58 -10 0 -50 71 -50 90 0 22 16 8 38 -32z m-716 -10 c-9 -9
-12 -7 -12 12 0 19 3 21 12 12 9 -9 9 -15 0 -24z m1323 -5 c17 -25 18 -25 31
-8 7 10 10 23 7 29 -4 6 0 5 9 -2 9 -7 18 -24 21 -38 4 -24 3 -24 -14 -8 -32
29 -21 2 14 -34 l32 -34 -35 24 c-49 33 -80 60 -91 81 -16 28 7 20 26 -10z
m101 12 c10 -8 15 -14 9 -14 -5 0 -19 6 -29 14 -11 8 -15 15 -10 15 6 0 19 -7
30 -15z m190 -23 c-4 -3 -14 2 -24 12 -16 18 -16 18 6 6 13 -6 21 -14 18 -18z
m-1556 -10 c22 -5 45 -30 36 -39 -5 -5 -11 -2 -13 5 -3 6 -9 10 -14 6 -5 -3
-9 -1 -9 4 0 5 -12 14 -26 20 -15 7 -22 17 -18 24 5 8 10 7 18 -3 6 -8 18 -15
26 -17z m1555 -20 c-3 -3 -16 5 -28 17 l-22 23 28 -17 c15 -10 25 -20 22 -23z
m-515 13 c17 -9 30 -18 30 -21 0 -2 -12 2 -27 9 -16 8 -35 17 -43 20 -10 4
-11 6 -2 6 7 1 26 -6 42 -14z m-317 -22 c20 -17 20 -17 13 2 -6 18 -5 18 7 5
23 -24 70 -110 60 -110 -14 0 -50 42 -56 65 -4 18 -5 18 -6 -2 -1 -22 -2 -21
-31 7 -17 17 -28 35 -25 40 9 14 15 13 38 -7z m-653 -24 c0 -5 -4 -9 -10 -9
-5 0 -10 7 -10 16 0 8 5 12 10 9 6 -3 10 -10 10 -16z m787 -68 c22 -46 15 -57
-17 -26 -16 16 -30 36 -30 45 0 9 -9 25 -20 35 -11 10 -20 22 -20 28 0 15 74
-54 87 -82z m283 43 c0 -9 -37 15 -51 33 -10 12 -5 11 19 -6 17 -12 32 -24 32
-27z m26 19 c-9 -9 24 -64 34 -58 6 4 10 1 10 -6 0 -7 8 -22 17 -33 10 -12 2
-6 -17 11 -19 18 -45 51 -58 74 -23 40 -23 40 -2 29 12 -6 19 -14 16 -17z m95
0 c13 -16 12 -17 -3 -4 -10 7 -18 15 -18 17 0 8 8 3 21 -13z m304 -3 c10 -11
16 -20 14 -21 -2 0 -12 -2 -22 -4 -15 -3 -16 -1 -6 11 9 11 8 14 -5 14 -9 0
-16 5 -16 10 0 16 15 12 35 -10z m-1445 -43 c0 -5 -7 -2 -15 7 -8 8 -15 23
-15 33 1 14 4 13 15 -7 8 -14 14 -29 15 -33z m725 43 c3 -6 -1 -7 -9 -4 -18 7
-21 14 -7 14 6 0 13 -4 16 -10z m371 -38 c-4 -3 -14 2 -24 12 -16 18 -16 18 6
6 13 -6 21 -14 18 -18z m115 -9 c10 -12 5 -11 -18 6 -18 12 -33 24 -33 27 0 9
37 -15 51 -33z m226 -43 c8 -11 21 -20 29 -20 8 0 13 -5 12 -12 -2 -7 2 -12 9
-13 17 0 25 -12 9 -12 -8 0 -41 27 -73 60 -32 33 -45 50 -29 38 16 -12 36 -31
43 -41z m-142 -8 c-7 -7 -55 39 -55 52 0 5 13 -3 30 -19 16 -16 28 -31 25 -33z
m175 1 c-1 -11 -40 37 -40 49 0 6 9 -1 20 -15 11 -14 20 -29 20 -34z m-2155
-26 c6 -6 -5 -1 -23 9 -18 10 -41 28 -50 38 -15 18 47 -23 73 -47z m1498 2
c-15 -15 -53 6 -53 30 0 30 13 33 39 6 18 -18 22 -28 14 -36z m378 44 c13 -16
12 -17 -3 -4 -17 13 -22 21 -14 21 2 0 10 -8 17 -17z m-33 -99 c37 -52 24 -49
-25 6 -68 76 -83 101 -37 60 23 -19 50 -49 62 -66z m16 81 c3 -8 1 -15 -3 -15
-5 0 -11 7 -15 15 -3 8 -1 15 3 15 5 0 11 -7 15 -15z m-304 -26 c11 -7 12 -12
3 -15 -7 -3 -9 -12 -6 -21 4 -11 3 -14 -6 -9 -7 5 -10 14 -7 21 2 7 -1 18 -7
24 -14 14 3 14 23 0z m623 -49 c8 0 10 -6 5 -21 -2 -6 -21 11 -43 37 -38 49
-38 49 -4 17 19 -18 37 -32 42 -33z m-269 23 c26 -5 34 -13 12 -13 -13 0 -16
-5 -11 -17 16 -40 15 -47 -2 -23 -10 14 -28 35 -40 48 -13 13 -23 25 -23 28 0
2 10 -1 23 -8 12 -6 31 -13 41 -15z m-1845 -9 c14 -12 -19 -1 -35 12 -18 14
-18 14 6 3 14 -6 27 -13 29 -15z m1556 -4 c-3 -5 -11 -10 -16 -10 -6 0 -7 5
-4 10 3 6 11 10 16 10 6 0 7 -4 4 -10z m-873 -28 c11 -13 8 -12 -19 2 -18 9
-33 18 -33 20 0 9 41 -8 52 -22z m1313 10 c-3 -3 -11 0 -18 7 -9 10 -8 11 6 5
10 -3 15 -9 12 -12z m-1195 -2 c8 -5 11 -10 5 -10 -5 0 -17 5 -25 10 -8 5 -10
10 -5 10 6 0 17 -5 25 -10z m-70 -10 c8 -5 11 -10 5 -10 -5 0 -17 5 -25 10 -8
5 -10 10 -5 10 6 0 17 -5 25 -10z m170 0 c0 -5 -2 -10 -4 -10 -3 0 -8 5 -11
10 -3 6 -1 10 4 10 6 0 11 -4 11 -10z m630 0 c0 -5 -6 -10 -14 -10 -8 0 -18 5
-21 10 -3 6 3 10 14 10 12 0 21 -4 21 -10z m105 -16 c9 -14 14 -28 11 -32 -3
-3 1 -16 9 -28 l15 -23 -34 20 c-54 32 -76 66 -24 38 11 -6 22 -8 25 -5 3 2
-11 12 -31 20 -41 17 -47 36 -12 36 14 0 30 -10 41 -26z m436 -1 c13 -15 16
-21 7 -14 -35 26 -19 -10 20 -47 20 -20 31 -33 25 -28 -8 4 -13 2 -13 -6 0 -7
-18 15 -40 49 -22 34 -40 65 -40 68 0 13 18 3 41 -22z m-1284 1 c-3 -3 -12 -4
-19 -1 -8 3 -5 6 6 6 11 1 17 -2 13 -5z m911 -6 c19 -19 14 -30 -8 -18 -11 6
-20 15 -20 20 0 14 14 12 28 -2z m-687 -25 c13 -16 12 -17 -3 -4 -10 7 -18 15
-18 17 0 8 8 3 21 -13z m767 -8 c15 -33 15 -35 -4 -35 -11 0 -15 6 -11 20 3
11 1 20 -4 20 -5 0 -9 5 -9 10 0 19 17 10 28 -15z m147 15 c3 -5 -1 -10 -9
-10 -9 0 -16 5 -16 10 0 6 4 10 9 10 6 0 13 -4 16 -10z m-70 -28 l30 -25 -30
7 c-16 4 -38 15 -48 25 -17 17 -17 18 0 18 10 0 32 -11 48 -25z m1225 20 c0
-13 -12 -22 -22 -16 -10 6 -1 24 13 24 5 0 9 -4 9 -8z m-2557 -22 c9 -10 9
-11 -2 -5 -7 4 -36 11 -65 16 l-51 8 53 -3 c29 -2 59 -9 65 -16z m532 10 c3
-5 2 -10 -4 -10 -5 0 -13 5 -16 10 -3 6 -2 10 4 10 5 0 13 -4 16 -10z m-447
-20 c23 -10 42 -21 42 -24 0 -3 -19 3 -42 13 -24 10 -50 21 -58 24 -13 5 -13
5 0 6 8 0 34 -8 58 -19z m1112 16 c0 -2 3 -11 6 -19 4 -12 0 -14 -15 -10 -24
6 -29 33 -6 33 8 0 15 -2 15 -4z m241 -23 c13 -16 12 -17 -3 -4 -17 13 -22 21
-14 21 2 0 10 -8 17 -17z m84 -23 c3 -5 -10 -1 -29 11 -20 12 -36 23 -36 25 0
7 58 -25 65 -36z m125 27 c8 -7 22 -21 30 -32 13 -17 11 -16 -17 3 -34 24 -50
42 -36 42 4 0 15 -6 23 -13z m-1079 -14 c13 -16 12 -17 -3 -4 -10 7 -18 15
-18 17 0 8 8 3 21 -13z m1173 1 c4 -9 4 -19 1 -22 -3 -3 -5 0 -5 6 0 7 -3 11
-7 11 -17 -3 -24 2 -18 11 9 15 22 12 29 -6z m-398 -47 c-3 -14 -1 -16 8 -8
10 8 18 6 31 -9 18 -20 17 -20 -9 -20 -19 0 -32 9 -46 33 -27 44 -27 66 1 41
12 -10 18 -26 15 -37z m-53 -5 c-22 -5 -37 13 -29 35 7 16 9 16 26 -7 17 -22
17 -25 3 -28z m117 23 c14 -14 37 -36 53 -49 27 -25 35 -46 17 -46 -5 0 -18 8
-28 18 -9 9 -32 28 -50 40 -17 13 -32 32 -32 43 0 25 9 24 40 -6z m-177 -13
c15 -16 24 -31 20 -35 -12 -13 -23 -7 -23 12 0 10 -9 21 -20 24 -11 3 -20 10
-20 16 0 18 15 12 43 -17z m-253 -1 c-25 -47 -7 -101 43 -131 18 -11 26 -20
19 -20 -8 0 -29 15 -48 34 -24 24 -34 43 -34 66 0 30 15 70 26 70 2 0 0 -9 -6
-19z m86 9 c48 -19 104 -70 104 -96 0 -58 -89 -69 -150 -18 -32 28 -38 56 -18
99 12 28 23 30 64 15z m404 1 c0 -5 3 -17 7 -27 9 -23 -13 -10 -27 17 -9 15
-7 19 5 19 8 0 15 -4 15 -9z m214 -27 c7 -19 2 -18 -19 6 -16 17 -16 20 -3 15
9 -4 19 -13 22 -21z m81 -7 c4 4 5 2 1 -5 -10 -17 -36 3 -36 27 1 12 4 10 13
-7 7 -12 17 -19 22 -15z m-220 -17 c9 0 15 -10 15 -22 0 -16 3 -19 8 -10 7 9
13 8 27 -8 10 -11 24 -19 31 -16 6 2 24 -9 40 -25 15 -16 25 -29 23 -29 -21 0
-108 37 -126 53 -13 11 -23 17 -23 12 0 -4 -9 0 -20 10 -20 18 -26 46 -13 59
4 3 11 0 15 -9 5 -8 16 -15 23 -15z m56 13 c13 -16 12 -17 -3 -4 -17 13 -22
21 -14 21 2 0 10 -8 17 -17z m111 -29 c-6 -11 -11 -13 -16 -5 -4 6 -2 11 4 11
7 0 9 9 5 23 -5 19 -4 20 5 5 7 -12 8 -24 2 -34z m-1027 26 c3 -6 -1 -7 -9 -4
-18 7 -21 14 -7 14 6 0 13 -4 16 -10z m976 -11 l24 -20 -30 17 c-39 24 -40 24
-28 24 6 0 21 -9 34 -21z m-2381 -43 c0 -3 -4 -8 -10 -11 -5 -3 -10 -1 -10 4
0 6 5 11 10 11 6 0 10 -2 10 -4z m49 1 c-2 -1 -13 -9 -24 -17 -19 -14 -19 -14
-6 3 7 9 18 17 24 17 6 0 8 -1 6 -3z m1631 -32 l25 -30 -27 24 c-16 14 -28 29
-28 34 0 6 1 8 3 6 1 -2 13 -17 27 -34z m810 -31 c0 -8 -5 -14 -12 -14 -6 0
-8 3 -5 7 4 3 1 13 -6 22 -8 9 -17 25 -21 36 -5 15 0 14 19 -8 14 -15 25 -35
25 -43z m-1046 41 c11 -8 15 -15 10 -15 -6 0 -19 7 -30 15 -10 8 -14 14 -9 14
6 0 19 -6 29 -14z m-74 -10 c16 -9 19 -14 9 -15 -8 0 -24 7 -35 15 -24 18 -7
19 26 0z m240 -5 c6 -11 8 -20 6 -20 -3 0 -10 9 -16 20 -6 11 -8 20 -6 20 3 0
10 -9 16 -20z m-140 -40 c8 -5 10 -10 4 -10 -7 0 -22 9 -35 21 -19 16 -20 18
-4 10 11 -6 27 -15 35 -21z m176 -11 c19 -22 19 -22 -3 -8 -13 8 -23 17 -23
21 0 12 6 9 26 -13z m182 14 c-10 -2 -26 -2 -35 0 -10 3 -2 5 17 5 19 0 27 -2
18 -5z m638 -28 c10 -8 15 -14 9 -14 -5 0 -19 6 -29 14 -11 8 -15 15 -10 15 6
0 19 -7 30 -15z m-847 -21 c14 -12 -19 -1 -35 12 -18 14 -18 14 6 3 14 -6 27
-13 29 -15z m218 20 c-3 -3 -12 -4 -19 -1 -8 3 -5 6 6 6 11 1 17 -2 13 -5z
m-367 -24 c0 -5 -2 -10 -4 -10 -3 0 -8 5 -11 10 -3 6 -1 10 4 10 6 0 11 -4 11
-10z m1010 -47 c0 -7 -39 17 -46 28 -3 6 5 3 20 -6 14 -10 26 -19 26 -22z m60
16 c0 -5 8 -9 18 -9 19 -1 63 -30 45 -30 -7 0 -14 4 -18 10 -3 5 -11 7 -18 5
-7 -3 -25 6 -42 19 -26 22 -27 24 -7 19 12 -3 22 -9 22 -14z m-890 -27 c-7 -3
-19 3 -28 13 -16 15 -15 16 12 4 15 -7 23 -15 16 -17z m-750 -7 c28 -14 50
-28 50 -30 0 -5 -99 42 -109 51 -12 11 15 1 59 -21z m150 -5 c13 -9 13 -10 0
-11 -27 -2 -63 3 -84 11 -16 7 -11 9 24 9 25 0 52 -4 60 -9z m700 -34 c0 -3
-18 3 -40 11 -22 9 -40 20 -40 25 0 4 18 -1 40 -12 22 -11 40 -22 40 -24z
m780 30 c18 -7 29 -16 24 -18 -5 -3 -22 3 -39 13 -36 22 -30 24 15 5z m110
-38 c0 -14 -14 -9 -45 17 l-30 25 38 -17 c20 -9 37 -20 37 -25z m-804 15 c-8
-8 -65 -9 -60 -2 2 4 18 7 34 7 17 -1 28 -3 26 -5z m865 -8 c16 -9 27 -20 24
-24 -3 -5 12 -19 33 -31 20 -12 41 -29 45 -36 5 -9 16 -12 28 -9 10 3 27 1 36
-4 15 -9 12 -10 -17 -9 -23 1 -53 15 -85 39 -107 80 -132 109 -64 74z m-96
-33 c-3 -3 -11 0 -18 7 -9 10 -8 11 6 5 10 -3 15 -9 12 -12z m539 -4 c8 -13
19 -54 25 -91 5 -38 15 -75 21 -82 15 -19 -2 -115 -20 -115 -6 0 -5 11 0 26 6
14 10 40 9 57 l-1 32 -9 -32 c-5 -18 -11 -33 -12 -33 -1 0 -2 45 -3 100 0 87
-3 104 -22 130 -13 16 -18 30 -13 30 6 0 17 -10 25 -22z m-2734 -4 c0 -3 -5
-14 -11 -25 -11 -21 -23 -18 -38 9 -7 14 -4 17 20 19 16 1 29 0 29 -3z m1200
2 c0 -3 -4 -8 -10 -11 -5 -3 -10 -1 -10 4 0 6 5 11 10 11 6 0 10 -2 10 -4z
m-358 -44 c-10 -3 -72 24 -72 32 0 3 19 -3 41 -12 23 -9 37 -18 31 -20z m-792
-4 c0 -13 -5 -30 -10 -38 -8 -13 -11 -13 -26 2 -16 16 -16 18 7 37 30 25 29
25 29 -1z m1297 -60 c-3 -8 -6 -5 -6 6 -1 11 2 17 5 13 3 -3 4 -12 1 -19z
m1251 -3 c-2 -6 -10 -8 -18 -7 -8 2 0 -10 18 -26 18 -17 32 -36 32 -43 0 -7
-17 3 -37 23 -35 33 -83 58 -83 43 0 -3 14 -35 30 -72 34 -74 29 -77 -10 -5
-14 25 -40 57 -59 69 l-35 23 68 -3 c37 -2 70 1 73 5 7 12 25 5 21 -7z m-843
-13 c-3 -3 -11 0 -18 7 -9 10 -8 11 6 5 10 -3 15 -9 12 -12z m-2183 -89 c50
-71 51 -80 7 -118 -22 -18 -21 -17 3 15 l26 36 -40 54 c-21 30 -46 69 -54 85
-8 17 -9 22 -2 12 7 -10 34 -48 60 -84z m3073 77 c25 -28 65 -27 65 2 0 15 3
19 10 12 15 -15 20 -52 10 -77 -7 -17 -9 -18 -9 -5 -1 10 -11 23 -23 29 -21
11 -22 11 -10 -4 8 -9 11 -21 7 -27 -4 -7 -16 2 -31 24 -13 19 -33 37 -44 41
-11 4 -18 11 -15 16 9 14 20 11 40 -11z m-1480 -55 c38 -59 50 -69 40 -32 -5
18 -4 19 5 5 5 -9 7 -23 4 -32 -9 -22 -42 -3 -55 32 -6 15 -16 39 -24 55 -22
44 -7 31 30 -28z m-1655 32 c0 -2 -19 -21 -42 -42 l-43 -40 40 43 c36 39 45
47 45 39z m1740 -82 c0 -8 -4 -15 -10 -15 -5 0 -10 7 -10 15 0 8 5 15 10 15 6
0 10 -7 10 -15z m44 -30 c-4 -8 -8 -15 -10 -15 -2 0 -4 7 -4 15 0 8 4 15 10
15 5 0 7 -7 4 -15z m17 -18 c-10 -9 -11 -8 -5 6 3 10 9 15 12 12 3 -3 0 -11
-7 -18z m1294 3 c-3 -5 -12 -10 -18 -10 -7 0 -6 4 3 10 19 12 23 12 15 0z
m-3045 -30 c-11 -16 -26 -33 -32 -36 -7 -4 1 9 16 29 34 44 46 50 16 7z m2980
5 c13 -14 21 -25 18 -25 -2 0 -15 11 -28 25 -13 14 -21 25 -18 25 2 0 15 -11
28 -25z m239 -82 c-8 -29 -15 -41 -22 -34 -6 6 -4 17 7 32 9 13 16 35 16 49 0
22 -3 20 -20 -15 -24 -47 -20 -28 6 33 l19 43 3 -32 c2 -18 -2 -52 -9 -76z
m-930 38 l-2 -26 -4 25 c-3 14 -10 32 -16 40 -11 13 -10 13 6 1 9 -7 16 -25
16 -40z m-372 24 c0 -8 -4 -12 -9 -9 -5 3 -6 10 -3 15 9 13 12 11 12 -6z m40
-27 c-3 -7 -5 -2 -5 12 0 14 2 19 5 13 2 -7 2 -19 0 -25z m370 0 c-3 -8 -6 -5
-6 6 -1 11 2 17 5 13 3 -3 4 -12 1 -19z m-2276 -5 c13 -16 12 -17 -3 -4 -10 7
-18 15 -18 17 0 8 8 3 21 -13z m1949 -13 c0 -11 -4 -20 -9 -20 -5 0 -7 9 -4
20 3 11 7 20 9 20 2 0 4 -9 4 -20z m397 -2 c-3 -8 -6 -5 -6 6 -1 11 2 17 5 13
3 -3 4 -12 1 -19z m24 -53 c-4 -18 -5 -17 -11 5 -3 14 -4 36 -1 50 5 24 5 24
11 -5 3 -16 4 -39 1 -50z m-1353 33 c-12 -18 -35 -59 -51 -93 l-28 -60 33 31
c18 17 56 43 83 59 56 32 56 32 -25 -60 -20 -22 -42 -55 -49 -72 -16 -38 -30
-36 -25 4 4 27 3 27 -4 3 -5 -17 -10 -21 -16 -12 -4 6 -5 16 -2 21 4 5 2 21
-4 35 -12 33 11 100 48 136 14 14 20 17 13 8 -8 -10 -9 -18 -3 -18 5 0 17 11
26 25 9 14 19 25 22 25 3 0 -5 -14 -18 -32z m-1076 -70 c63 -75 38 -56 -33 25
-34 39 -50 61 -35 47 15 -14 46 -46 68 -72z m2492 42 c8 -25 12 -48 7 -53 -5
-5 -12 9 -15 30 -4 21 -10 47 -13 58 -10 37 5 11 21 -35z m-1524 27 c0 -2 -10
-12 -22 -23 l-23 -19 19 23 c18 21 26 27 26 19z m1580 -17 c0 -5 -5 -10 -11
-10 -5 0 -7 5 -4 10 3 6 8 10 11 10 2 0 4 -4 4 -10z m20 -21 c-7 -11 -14 -19
-16 -16 -7 7 7 37 17 37 6 0 5 -9 -1 -21z m-1330 6 c0 -2 -22 -22 -49 -44 -28
-21 -48 -41 -45 -44 3 -3 1 -8 -5 -12 -17 -10 -13 28 5 54 19 27 94 64 94 46z
m1960 -8 c0 -7 -7 -22 -16 -33 -15 -19 -15 -19 -6 1 5 11 7 26 5 33 -3 6 0 12
6 12 6 0 11 -6 11 -13z m49 -34 c0 -27 -3 -42 -6 -34 -4 10 -12 6 -29 -14 -13
-16 -24 -23 -24 -17 0 6 4 13 10 17 5 3 7 13 4 23 -4 12 -3 13 3 4 7 -9 12 -7
22 11 7 13 11 27 10 33 -2 13 0 24 6 24 3 0 5 -21 4 -47z m-2325 -14 c-16 -17
-17 -17 -34 4 -17 21 -17 22 4 33 17 9 24 8 33 -4 10 -13 10 -19 -3 -33z
m1685 29 c-1 -18 -2 -19 -6 -5 -2 9 -9 14 -15 11 -7 -4 -8 -2 -4 4 12 20 26
13 25 -10z m-2576 -149 c-14 -22 -27 -39 -30 -39 -5 0 11 29 30 55 14 18 11
24 -40 85 l-55 65 60 -64 60 -64 -25 -38z m2077 139 c0 -18 -2 -20 -9 -8 -6 8
-7 18 -5 22 9 14 14 9 14 -14z m551 8 c7 -9 -8 -76 -19 -88 -4 -4 -7 17 -8 47
-1 50 10 66 27 41z m-1801 -15 c9 -18 8 -19 -28 -10 -52 14 -63 20 -24 14 17
-2 32 0 32 5 0 16 8 12 20 -9z m1880 -64 c-1 -7 -7 -23 -14 -37 l-14 -24 -11
39 c-6 21 -8 41 -6 44 3 2 5 -2 5 -9 0 -7 2 -11 5 -8 9 8 -6 38 -16 32 -10 -6
-12 9 -2 19 8 8 53 -40 53 -56z m-1960 23 c0 -10 -3 -25 -6 -34 -11 -29 -20
-16 -16 24 4 39 22 47 22 10z m64 9 c36 -10 38 -12 32 -42 -3 -17 -8 -32 -11
-35 -9 -9 -80 15 -77 27 1 6 3 23 4 36 3 29 1 28 52 14z m1357 -22 c-10 -9
-11 -8 -5 6 3 10 9 15 12 12 3 -3 0 -11 -7 -18z m569 8 c0 6 5 3 10 -5 14 -22
12 -53 -4 -75 -14 -19 -14 -19 -14 5 1 14 -2 41 -6 60 -6 26 -5 31 3 20 6 -8
11 -10 11 -5z m-1829 -12 c13 -16 12 -17 -3 -4 -17 13 -22 21 -14 21 2 0 10
-8 17 -17z m1290 -10 c-12 -20 -14 -14 -5 12 4 9 9 14 11 11 3 -2 0 -13 -6
-23z m-1259 -48 c43 -43 114 -163 103 -173 -3 -3 -15 4 -28 15 -12 11 -29 24
-37 28 -8 5 7 -11 34 -35 30 -28 59 -67 77 -105 16 -33 40 -77 55 -99 l26 -38
-34 24 c-38 29 -58 41 -58 35 0 -2 24 -20 53 -40 65 -45 155 -135 117 -118
l-25 12 25 -18 c14 -9 54 -47 90 -83 36 -36 82 -79 104 -95 l39 -30 -84 3
c-54 3 -93 9 -109 20 -23 14 -24 14 -11 -1 25 -31 -40 -20 -96 16 -92 58 -93
59 -53 51 19 -3 69 -10 110 -15 41 -4 89 -11 105 -13 33 -6 -64 26 -133 44
-24 6 -61 28 -84 48 -40 36 -40 37 -17 43 13 3 -16 8 -66 11 -85 6 -91 8 -119
39 l-29 33 24 9 c33 12 122 2 193 -23 62 -21 73 -24 64 -15 -14 14 -127 47
-190 55 -74 9 -95 21 -128 76 l-19 34 32 0 c18 0 59 -7 92 -14 67 -16 83 -14
33 4 -18 6 -82 14 -143 16 -133 6 -151 9 -159 29 -3 9 -2 13 4 10 6 -3 10 -1
10 6 0 7 8 5 21 -7 l22 -19 -17 33 -17 32 123 1 c77 1 114 4 98 9 -14 4 -41 8
-61 9 -30 1 -38 6 -52 36 -24 51 -22 55 31 56 46 1 46 1 15 10 -25 7 -35 17
-41 42 -5 17 -8 34 -6 35 7 10 78 -23 130 -60 32 -22 53 -34 46 -25 -8 9 -36
30 -63 47 -43 28 -47 34 -38 52 6 11 8 23 4 26 -3 3 -8 -4 -12 -16 -5 -22 -27
-30 -37 -13 -3 5 -3 23 0 40 8 37 21 32 86 -34z m1860 -2 c-13 -28 -17 -31
-22 -17 -8 23 0 65 11 58 5 -3 9 1 9 8 0 10 2 10 9 -1 6 -9 3 -26 -7 -48z
m393 48 c3 -5 1 -12 -5 -16 -5 -3 -10 1 -10 9 0 18 6 21 15 7z m-2244 -18 c13
-16 12 -17 -3 -4 -10 7 -18 15 -18 17 0 8 8 3 21 -13z m1914 -16 c-6 -21 -5
-20 15 3 27 31 15 8 -22 -44 l-28 -39 0 31 c0 37 19 84 32 76 5 -3 6 -15 3
-27z m-603 1 c-7 -7 -12 -8 -12 -2 0 14 12 26 19 19 2 -3 -1 -11 -7 -17z m723
-8 c-8 -24 12 -24 33 0 12 13 13 12 7 -5 -5 -16 -4 -18 6 -7 23 22 28 13 26
-47 -1 -32 -5 -57 -9 -54 -5 2 -8 10 -8 18 0 8 -5 26 -12 40 l-12 26 -17 -33
-17 -33 -16 40 -17 39 -20 -29 -20 -30 6 30 c12 56 15 61 25 45 6 -9 10 -10
10 -3 0 6 8 14 18 16 9 3 18 5 20 6 2 0 0 -8 -3 -19z m204 -25 c0 -5 -6 -1
-14 9 -8 11 -15 24 -15 30 0 5 7 1 15 -10 8 -10 14 -23 14 -29z m-2389 8 c4
-4 11 -25 14 -46 l7 -37 -43 6 c-24 4 -44 7 -45 8 -1 1 -6 21 -12 45 l-9 43
40 -5 c22 -3 44 -9 48 -14z m1533 2 c-3 -9 -8 -14 -10 -11 -3 3 -2 9 2 15 9
16 15 13 8 -4z m767 -12 c0 -11 3 -14 8 -7 4 6 17 13 30 16 19 5 22 2 22 -20
0 -36 -10 -72 -20 -72 -5 0 -6 19 -4 43 l4 42 -18 -55 c-22 -64 -66 -150 -58
-110 3 14 9 60 12 103 4 42 11 77 15 77 5 0 9 -8 9 -17z m-2380 -50 c0 -7 -4
-13 -10 -13 -5 0 -10 12 -10 28 0 21 2 24 10 12 5 -8 10 -21 10 -27z m1676 -9
c-4 -9 -9 -15 -11 -12 -3 3 -3 13 1 22 4 9 9 15 11 12 3 -3 3 -13 -1 -22z
m-370 -16 c16 -13 34 -29 40 -37 6 -8 18 -11 28 -8 11 4 16 1 16 -9 0 -11 6
-15 19 -11 13 3 18 0 15 -7 -3 -7 13 -27 36 -45 22 -17 40 -27 40 -20 0 7 11
0 25 -15 13 -14 31 -26 40 -26 9 0 18 -7 22 -16 3 -8 16 -20 29 -25 15 -5 24
-17 24 -29 0 -17 3 -19 19 -11 17 9 18 8 13 -12 -5 -19 -3 -20 10 -10 12 11
17 8 28 -12 8 -14 20 -23 27 -21 8 3 13 -2 13 -14 0 -22 15 -27 24 -7 3 6 3 1
-1 -13 -5 -22 -4 -23 11 -11 14 12 16 12 10 -3 -4 -10 0 -18 12 -23 11 -4 24
-14 31 -23 7 -10 26 -23 43 -30 16 -7 30 -17 30 -22 0 -6 9 -8 20 -5 11 3 23
1 26 -4 3 -5 10 -7 15 -4 5 4 9 -1 9 -10 0 -13 4 -14 21 -5 15 8 24 8 34 0 8
-7 14 -7 17 -1 1 6 19 12 38 14 20 2 41 7 48 11 7 4 12 2 12 -6 0 -7 5 -5 11
6 8 13 13 15 19 6 5 -8 9 -7 13 5 4 9 3 13 -3 10 -15 -9 -12 8 5 31 8 10 15
29 15 42 0 12 5 22 10 22 12 0 12 -3 -1 -60 -5 -25 -21 -62 -34 -82 -14 -21
-26 -52 -27 -70 l-1 -33 -4 33 c-2 17 -8 32 -12 32 -4 0 -20 -22 -35 -50 -25
-47 -41 -66 -31 -37 3 6 1 26 -3 42 l-9 30 -23 -52 c-12 -29 -25 -53 -29 -53
-3 0 -5 28 -4 62 l2 63 -10 -54 c-12 -72 -61 -130 -51 -61 6 42 -5 89 -29 129
l-21 35 -30 -57 c-32 -59 -66 -88 -48 -41 6 14 10 38 10 54 0 32 -28 110 -39
110 -4 0 -18 -24 -30 -52 l-24 -53 -8 57 c-5 32 -17 74 -27 94 l-19 37 -22
-36 c-24 -40 -70 -72 -116 -82 l-30 -6 31 16 c33 17 54 51 54 89 0 32 -29 113
-46 127 -12 10 -14 2 -14 -47 0 -66 -16 -107 -44 -112 -17 -4 -18 -3 -2 19 9
13 16 33 16 45 0 40 -39 149 -65 179 l-25 30 -19 -23 -19 -22 -7 32 c-9 37
-62 108 -82 108 -16 0 -17 -54 -2 -98 6 -17 9 -37 7 -44 -5 -15 -47 92 -55
140 -5 27 -3 32 14 32 11 0 33 -10 49 -22z m-1540 -218 c180 -241 349 -375
754 -597 85 -47 216 -125 290 -173 74 -48 146 -93 160 -100 46 -23 303 -214
354 -263 l51 -48 -65 53 c-105 86 -267 201 -385 273 -60 37 -135 84 -165 105
-30 21 -138 84 -240 140 -307 172 -445 266 -578 395 -101 97 -243 278 -286
362 -37 74 -32 80 7 8 18 -33 64 -103 103 -155z m221 193 c14 -17 14 -17 9 0
-5 16 0 18 35 15 37 -3 42 -7 59 -46 l19 -43 -66 3 -66 3 -18 43 c-16 38 -17
42 -2 42 9 0 22 -8 30 -17z m1929 -12 c7 13 13 18 14 11 0 -7 -5 -22 -10 -32
-15 -29 -40 -14 -39 24 l1 31 10 -29 11 -29 13 24z m40 -55 c-1 -35 -4 -68 -8
-72 -5 -4 -8 0 -8 10 0 9 -4 14 -10 11 -6 -4 -10 8 -10 29 0 20 4 36 10 36 5
0 12 11 16 25 3 14 7 25 8 25 1 0 2 -29 2 -64z m-1011 44 c-3 -5 -16 -15 -28
-21 -21 -10 -21 -9 2 10 25 23 36 27 26 11z m1091 -32 c-9 -12 -16 -40 -16
-61 0 -25 -8 -49 -21 -65 -17 -22 -20 -23 -16 -7 3 11 8 38 11 60 4 31 3 35
-4 18 -9 -23 -20 -30 -20 -14 0 11 73 101 78 96 2 -2 -3 -14 -12 -27z m58 -34
c-12 -29 -13 -39 -3 -51 11 -13 15 -12 31 9 14 18 18 20 18 6 0 -9 -4 -20 -10
-23 -5 -3 -10 -18 -10 -33 0 -21 2 -24 10 -12 5 8 10 11 10 5 0 -5 12 4 26 20
l25 30 -16 -32 c-17 -36 -20 -73 -5 -73 6 0 10 12 10 26 0 14 4 23 9 20 5 -3
12 6 15 20 10 40 16 23 7 -18 -7 -28 -5 -40 5 -49 11 -9 14 -8 14 2 0 11 2 11
10 -1 8 -12 10 -12 11 5 0 11 3 15 5 8 3 -6 -1 -26 -9 -45 -14 -32 -15 -33
-68 -29 -59 4 -57 6 14 16 34 5 47 11 47 23 0 12 -3 13 -12 4 -15 -15 -78 -16
-78 -1 0 6 -8 9 -19 6 -15 -3 -17 0 -13 17 5 18 3 19 -10 9 -20 -17 -28 -7
-29 41 -1 35 -2 38 -9 16 -4 -14 -9 -18 -9 -10 -1 10 -7 6 -16 -10 -11 -20
-14 -21 -15 -7 0 12 -5 16 -12 11 -10 -6 -10 -4 0 7 6 7 12 19 12 27 0 11 68
102 77 102 1 0 -5 -16 -13 -36z m-1194 22 c0 -2 -8 -10 -17 -17 -16 -13 -17
-12 -4 4 13 16 21 21 21 13z m967 -38 c-3 -7 -5 -2 -5 12 0 14 2 19 5 13 2 -7
2 -19 0 -25z m-1167 -28 c0 -5 -2 -10 -4 -10 -3 0 -8 5 -11 10 -3 6 -1 10 4
10 6 0 11 -4 11 -10z m1251 -77 c8 -10 -5 -3 -28 16 -24 18 -43 35 -43 38 0 7
55 -34 71 -54z m663 -54 c-3 -5 -10 -7 -15 -3 -5 3 -7 10 -3 15 3 5 10 7 15 3
5 -3 7 -10 3 -15z m-1230 -21 c-7 -10 -34 -10 -34 0 0 4 5 13 12 20 9 9 14 9
19 0 4 -7 5 -16 3 -20z m-478 -16 c-10 -10 -29 15 -21 28 6 9 10 8 17 -4 6
-10 7 -20 4 -24z m-736 8 c18 -12 2 -12 -25 0 -13 6 -15 9 -5 9 8 0 22 -4 30
-9z m431 -82 c17 -21 26 -38 21 -38 -16 0 -62 78 -61 102 2 21 2 21 6 -2 3
-14 18 -42 34 -62z m1599 23 c0 -17 -42 -71 -51 -66 -6 4 -4 12 7 19 9 7 14
18 10 24 -10 16 4 41 20 35 8 -3 14 -8 14 -12z m-1529 -64 c11 -22 18 -41 15
-44 -2 -3 -19 24 -36 58 -32 66 -14 53 21 -14z m21 -66 c2 6 9 0 16 -15 18
-40 -2 -31 -65 30 l-58 56 52 -41 c29 -23 53 -36 55 -30z m43 38 c9 -17 15
-34 13 -39 -2 -5 -11 9 -20 30 -20 47 -15 53 7 9z m542 -18 c10 9 13 8 13 -4
0 -26 -16 -28 -36 -4 -10 12 -12 16 -4 10 10 -9 17 -10 27 -2z m-414 -130 c35
-52 40 -68 24 -78 -7 -3 -9 -2 -4 2 4 5 -1 18 -12 29 -26 29 -75 122 -55 105
9 -7 30 -33 47 -58z m785 -42 c-6 -4 -19 -4 -30 -1 -15 4 -17 7 -6 13 7 5 9 9
3 9 -5 0 -4 4 4 9 10 7 19 4 27 -7 8 -11 9 -19 2 -23z m742 19 c0 -6 8 -17 18
-24 16 -13 16 -13 -1 -14 -10 0 -20 -6 -23 -14 -4 -12 -9 -11 -25 5 -18 18
-18 21 -4 35 8 9 15 20 15 25 0 6 5 7 10 4 6 -3 10 -11 10 -17z m-1596 -19
c48 -24 48 -24 20 -30 -68 -15 -116 -9 -160 19 -24 15 -44 31 -44 36 0 17 134
-1 184 -25z m-1324 -3 c0 -3 -4 -8 -10 -11 -5 -3 -10 -1 -10 4 0 6 5 11 10 11
6 0 10 -2 10 -4z m1647 -63 c-3 -10 -5 -2 -5 17 0 19 2 27 5 18 2 -10 2 -26 0
-35z m-169 -19 c34 -19 62 -37 62 -39 0 -2 -19 2 -41 10 -23 8 -61 15 -85 15
-45 0 -124 26 -124 40 0 11 56 18 95 12 17 -2 58 -19 93 -38z m-13 36 c3 -6
-1 -7 -9 -4 -18 7 -21 14 -7 14 6 0 13 -4 16 -10z m153 -88 c38 -50 22 -38
-48 35 -54 55 -57 61 -21 32 25 -20 55 -50 69 -67z m1219 33 c-14 -15 -28 0
-20 22 4 10 9 11 19 2 10 -8 11 -14 1 -24z m-1326 -25 c74 -23 165 -71 163
-85 -1 -6 21 -22 49 -37 61 -34 139 -97 132 -108 -2 -4 -41 -7 -86 -5 -78 2
-82 3 -120 41 -21 21 -38 39 -36 40 1 1 38 -4 82 -11 44 -7 82 -11 83 -10 6 5
-68 25 -118 32 -54 7 -88 23 -115 53 l-20 23 55 -6 c60 -6 49 -2 -74 29 -37 9
-80 27 -95 40 l-26 23 31 1 c18 0 60 -9 95 -20z m843 -9 c3 -4 3 -11 0 -14 -8
-8 -34 3 -34 14 0 11 27 12 34 0z m-445 -80 c1 -13 19 -59 41 -102 22 -44 36
-79 31 -79 -5 0 -24 15 -42 33 -18 17 -30 26 -25 20 12 -22 1 -14 -25 14 l-24
28 24 -20 c24 -20 24 -20 16 0 -4 11 -9 54 -10 95 -1 45 1 67 6 55 4 -11 8
-31 8 -44z m1004 -129 c20 -19 37 -41 37 -49 0 -7 16 -36 36 -63 36 -51 39
-75 8 -87 -16 -6 -37 14 -28 28 2 4 -2 9 -9 12 -15 6 -95 162 -102 202 -5 27
-4 28 7 11 7 -10 30 -34 51 -54z m103 -4 c30 -33 64 -82 64 -93 0 -4 -19 9
-42 28 -24 19 -53 40 -65 46 -26 13 -30 31 -7 31 8 0 12 5 9 10 -14 23 13 8
41 -22z m-824 -25 c36 -39 54 -79 63 -138 4 -27 11 -58 16 -67 18 -33 0 -18
-25 20 -13 20 -29 62 -35 91 -7 30 -23 70 -37 88 -30 40 -18 44 18 6z m-230
-53 c126 -65 138 -79 48 -55 -30 9 -83 16 -118 16 -57 1 -67 4 -112 40 -28 22
-50 42 -50 46 0 3 34 3 75 1 63 -4 88 -12 157 -48z m473 -10 c-3 -5 -11 -10
-16 -10 -6 0 -7 5 -4 10 3 6 11 10 16 10 6 0 7 -4 4 -10z m-330 -100 c44 -22
71 -38 60 -35 -32 7 -146 7 -202 -1 -46 -6 -53 -4 -53 10 0 13 4 15 19 6 32
-17 33 -12 5 25 l-26 35 59 0 c49 0 72 -7 138 -40z m276 -102 c-3 -4 -7 19 -8
50 l-1 57 8 -50 c4 -27 5 -53 1 -57z m-146 17 c56 -38 125 -105 90 -87 -11 6
-70 20 -130 32 -107 22 -185 54 -168 70 16 16 79 29 118 24 23 -3 62 -19 90
-39z m-10 -115 c10 -11 16 -20 13 -20 -3 0 -13 9 -23 20 -10 11 -16 20 -13 20
3 0 13 -9 23 -20z m168 -57 c-7 -2 -21 -2 -30 0 -10 3 -4 5 12 5 17 0 24 -2
18 -5z"/>
<path d="M2610 3835 c-33 -19 -10 -19 26 0 16 8 22 15 14 15 -8 -1 -26 -7 -40
-15z"/>
<path d="M2750 3819 c-39 -16 -69 -49 -76 -85 -8 -45 3 -72 37 -90 33 -16 60
-12 81 13 12 15 11 15 -12 1 -56 -35 -94 20 -48 69 19 20 20 27 10 43 -16 26
10 40 80 41 41 1 48 3 28 9 -34 11 -70 11 -100 -1z"/>
<path d="M2670 3788 c-29 -31 -35 -63 -21 -110 18 -57 53 -90 88 -82 43 10 46
19 7 20 -44 1 -83 37 -90 85 -4 26 0 43 20 72 29 42 27 48 -4 15z"/>
<path d="M2511 3769 c-44 -19 -47 -37 -7 -43 10 -1 21 -8 25 -14 5 -8 18 -1
40 22 53 55 24 73 -58 35z m49 -34 c-7 -8 -18 -15 -24 -15 -6 0 -2 7 8 15 25
19 32 19 16 0z"/>
<path d="M2764 3775 c24 -18 39 -20 34 -2 -3 6 -15 13 -29 15 -23 2 -23 2 -5
-13z"/>
<path d="M2616 3711 c-4 -6 0 -23 8 -38 l15 -28 -6 35 c-7 41 -9 45 -17 31z"/>
<path d="M2740 3705 c-7 -8 -9 -15 -4 -15 5 0 2 -5 -6 -10 -12 -8 -11 -10 6
-10 23 0 44 18 44 37 0 18 -25 16 -40 -2z"/>
<path d="M3125 3680 c10 -11 20 -20 23 -20 3 0 -3 9 -13 20 -10 11 -20 20 -23
20 -3 0 3 -9 13 -20z"/>
<path d="M2600 3671 c0 -6 4 -13 10 -16 6 -3 7 1 4 9 -7 18 -14 21 -14 7z"/>
<path d="M2610 3616 c0 -2 7 -9 15 -16 13 -11 14 -10 9 4 -5 14 -24 23 -24 12z"/>
<path d="M2650 3604 c0 -8 5 -12 10 -9 6 4 8 11 5 16 -9 14 -15 11 -15 -7z"/>
<path d="M2892 3609 c2 -7 15 -14 28 -16 27 -4 25 -1 -9 17 -19 9 -22 9 -19
-1z"/>
<path d="M2863 3586 c0 -8 12 -20 26 -26 l26 -12 -24 26 c-29 30 -28 30 -28
12z"/>
<path d="M2828 3541 c-10 -13 -10 -14 1 -4 9 8 21 9 38 2 13 -5 22 -5 19 0
-11 17 -45 19 -58 2z"/>
<path d="M2900 3526 c0 -2 8 -10 18 -17 15 -13 16 -12 3 4 -13 16 -21 21 -21
13z"/>
<path d="M2400 3516 c0 -2 8 -10 18 -17 15 -13 16 -12 3 4 -13 16 -21 21 -21
13z"/>
<path d="M2515 3499 c-4 -6 -5 -12 -2 -15 2 -3 7 2 10 11 7 17 1 20 -8 4z"/>
<path d="M2457 3439 c4 -13 8 -18 11 -10 2 7 -1 18 -6 23 -8 8 -9 4 -5 -13z"/>
<path d="M2598 3235 c18 -8 35 -22 38 -32 3 -10 10 -27 15 -38 7 -16 8 -13 3
10 -7 38 -41 75 -68 75 -16 -1 -13 -4 12 -15z"/>
<path d="M2915 2830 c3 -5 8 -10 11 -10 2 0 4 5 4 10 0 6 -5 10 -11 10 -5 0
-7 -4 -4 -10z"/>
<path d="M3332 2530 c0 -19 2 -27 5 -17 2 9 2 25 0 35 -3 9 -5 1 -5 -18z"/>
<path d="M3320 2469 c0 -5 5 -7 10 -4 6 3 10 8 10 11 0 2 -4 4 -10 4 -5 0 -10
-5 -10 -11z"/>
<path d="M3331 2341 c-8 -14 -7 -22 7 -32 15 -12 15 -12 6 1 -9 11 -9 18 1 27
8 7 16 9 20 4 3 -5 0 -11 -7 -13 -9 -3 -9 -6 0 -12 7 -4 12 -2 12 4 0 6 6 8
13 4 6 -4 3 2 -7 14 -23 27 -32 27 -45 3z"/>
<path d="M3600 2175 c7 -9 15 -13 17 -11 7 7 -7 26 -19 26 -6 0 -6 -6 2 -15z"/>
<path d="M1835 3240 c-3 -5 3 -10 15 -10 12 0 18 5 15 10 -3 6 -10 10 -15 10
-5 0 -12 -4 -15 -10z"/>
<path d="M2536 2504 c-5 -14 -4 -15 9 -4 17 14 19 20 6 20 -5 0 -12 -7 -15
-16z"/>
<path d="M2612 2483 c15 -10 34 -31 43 -48 14 -29 15 -29 15 -5 0 17 -10 32
-33 48 -18 12 -37 22 -43 22 -5 0 3 -8 18 -17z"/>
<path d="M1820 1317 c0 -2 15 -16 33 -33 l32 -29 -29 33 c-28 30 -36 37 -36
29z"/>
<path d="M1994 1014 c38 -13 71 -22 73 -20 5 5 -116 46 -131 45 -6 0 20 -11
58 -25z"/>
<path d="M2805 460 c3 -5 11 -10 16 -10 6 0 7 5 4 10 -3 6 -11 10 -16 10 -6 0
-7 -4 -4 -10z"/>
<path d="M2936 275 c9 -14 26 -25 37 -25 20 0 20 1 -3 25 -13 14 -30 25 -37
25 -11 0 -10 -5 3 -25z"/>
<path d="M3183 143 c9 -2 23 -2 30 0 6 3 -1 5 -18 5 -16 0 -22 -2 -12 -5z"/>
</g>
</svg>
